<svg xmlns="http://www.w3.org/2000/svg" viewBox="0 0 800 400" width="100%" height="100%">
  <defs>
    <linearGradient id="cabGrad" x1="0" y1="0" x2="0" y2="1">
      <stop offset="0%" stop-color="#0FBE73"/>
      <stop offset="55%" stop-color="#09864B"/>
      <stop offset="100%" stop-color="#066B3C"/>
    </linearGradient>
    <linearGradient id="trailerGrad" x1="0" y1="0" x2="0" y2="1">
      <stop offset="0%" stop-color="#FFFFFF"/>
      <stop offset="100%" stop-color="#EAF3EE"/>
    </linearGradient>
    <linearGradient id="glassGrad" x1="0" y1="0" x2="0" y2="1">
      <stop offset="0%" stop-color="#BFE8D6"/>
      <stop offset="100%" stop-color="#7FCBAA"/>
    </linearGradient>
    <linearGradient id="stripeGrad" x1="0" y1="0" x2="1" y2="0">
      <stop offset="0%" stop-color="#0A9F5B"/>
      <stop offset="100%" stop-color="#09864B"/>
    </linearGradient>
    <radialGradient id="wheelHub" cx="0.35" cy="0.35" r="0.75">
      <stop offset="0%" stop-color="#F4F7FA"/>
      <stop offset="60%" stop-color="#D3DBE4"/>
      <stop offset="100%" stop-color="#9AA7B4"/>
    </radialGradient>
    <radialGradient id="headGlow" cx="0.5" cy="0.5" r="0.5">
      <stop offset="0%" stop-color="#FFF7D6" stop-opacity="0.95"/>
      <stop offset="100%" stop-color="#FFF7D6" stop-opacity="0"/>
    </radialGradient>
    <linearGradient id="chassisGrad" x1="0" y1="0" x2="0" y2="1">
      <stop offset="0%" stop-color="#22334A"/>
      <stop offset="100%" stop-color="#14263D"/>
    </linearGradient>
    <filter id="softShadow" x="-20%" y="-20%" width="140%" height="140%">
      <feDropShadow dx="0" dy="6" stdDeviation="8" flood-color="#14263D" flood-opacity="0.18"/>
    </filter>
  </defs>

  <ellipse cx="400" cy="336" rx="345" ry="12" fill="#14263D" opacity="0.14"/>

  <g stroke="#09864B" stroke-width="4" stroke-linecap="round" opacity="0.18">
    <line x1="10" y1="150" x2="70" y2="150"/>
    <line x1="0" y1="185" x2="55" y2="185"/>
    <line x1="18" y1="220" x2="65" y2="220"/>
  </g>

  <g filter="url(#softShadow)">
    <path d="M 236 96 L 706 96 Q 724 96 724 114 L 724 268 Q 724 278 714 278 L 236 278 Z"
          fill="url(#trailerGrad)" stroke="#D8E4DE" stroke-width="2"/>
    <rect x="236" y="196" width="488" height="20" fill="url(#stripeGrad)"/>
    <text x="480" y="160" font-family="'Segoe UI', Arial, sans-serif" font-size="34" font-weight="800"
          fill="#14263D" text-anchor="middle" letter-spacing="7">YO'LDA</text>
    <text x="480" y="185" font-family="'Segoe UI', Arial, sans-serif" font-size="12" font-weight="600"
          fill="#09864B" text-anchor="middle" letter-spacing="4">YUK VA HAYDOVCHI BIR JOYDA</text>
    <path d="M 236 250 L 714 250 L 714 278 L 236 278 Z" fill="#F4F8F6"/>
    <path d="M 236 96 L 706 96 Q 724 96 724 114 L 724 118 L 236 118 Z" fill="#FFFFFF" opacity="0.7"/>
  </g>

  <path d="M 96 278 L 706 278 L 696 306 L 106 306 Z" fill="url(#chassisGrad)"/>

  <g filter="url(#softShadow)">
    <path d="M 78 250 L 108 132 Q 148 96 236 96 L 236 278 L 92 278 Z" fill="url(#cabGrad)"/>
    <path d="M 128 108 Q 175 88 236 90 L 236 100 Q 178 98 134 116 Z" fill="#066B3C"/>
    <path d="M 116 148 L 150 140 L 162 200 L 106 200 Z" fill="url(#glassGrad)" stroke="#066B3C" stroke-width="2"/>
    <path d="M 156 138 L 210 138 L 210 200 L 170 200 Z" fill="url(#glassGrad)" opacity="0.92" stroke="#066B3C" stroke-width="2"/>
    <path d="M 214 138 L 214 278" stroke="#066B3C" stroke-width="2" opacity="0.5"/>
    <rect x="98" y="150" width="10" height="22" rx="3" fill="#14263D"/>
    <path d="M 78 250 L 236 250 L 236 268 L 84 268 Z" fill="#14263D"/>
    <rect x="88" y="222" width="60" height="8" rx="4" fill="#0A9F5B"/>
    <rect x="88" y="234" width="60" height="8" rx="4" fill="#0A9F5B" opacity="0.7"/>
    <circle cx="90" cy="244" r="16" fill="url(#headGlow)"/>
    <path d="M 74 236 Q 92 230 104 240 Q 92 250 74 246 Z" fill="#FFFFFF"/>
    <circle cx="92" cy="240" r="3" fill="#0A9F5B"/>
  </g>

  <g>
    <g transform="translate(150, 306)">
      <circle r="34" fill="#14263D"/>
      <circle r="20" fill="url(#wheelHub)"/>
      <circle r="7" fill="#48566E"/>
    </g>
    <g transform="translate(272, 306)">
      <circle r="34" fill="#14263D"/>
      <circle r="20" fill="url(#wheelHub)"/>
      <circle r="7" fill="#48566E"/>
    </g>
    <g transform="translate(590, 306)">
      <circle r="34" fill="#14263D"/>
      <circle r="20" fill="url(#wheelHub)"/>
      <circle r="7" fill="#48566E"/>
    </g>
    <g transform="translate(662, 306)">
      <circle r="34" fill="#14263D"/>
      <circle r="20" fill="url(#wheelHub)"/>
      <circle r="7" fill="#48566E"/>
    </g>
  </g>
</svg>
